<svg style="position: absolute; width: 0; height: 0; overflow: hidden;" version="1.1" xmlns="http://www.w3.org/2000/svg" xmlns:xlink="http://www.w3.org/1999/xlink">
<defs>
<symbol id="icon-play-button" viewBox="0 0 48 48">
<title>icon-play-button</title>
<path d="M23.961 0c-13.234 0-23.961 10.746-23.961 24s10.728 24 23.961 24c13.234 0 23.961-10.746 23.961-24s-10.728-24-23.961-24zM23.961 43.46c-10.724 0-19.417-8.713-19.417-19.46s8.694-19.46 19.417-19.46 19.416 8.713 19.416 19.461c0 10.747-8.693 19.459-19.416 19.459zM33.869 24.892c-0.776 0.441-13.447 7.504-14.365 7.994-0.672 0.36-1.553-0.037-1.553-0.856 0-0.831 0-15.411 0-15.984 0-0.743 0.798-1.296 1.585-0.861 0.632 0.347 13.255 7.375 14.333 7.975 0.707 0.395 0.695 1.336 0 1.731z"></path>
</symbol>
<symbol id="icon-pencil" viewBox="0 0 48 48">
<title>pencil</title>
<path d="M46.191 1.808c-2.41-2.41-6.334-2.41-8.744 0l-33.71 33.71c-0.169 0.169-0.296 0.373-0.37 0.599l-3.288 9.864c-0.184 0.551-0.041 1.159 0.37 1.57 0.292 0.292 0.684 0.449 1.085 0.449 0.163 0 0.326-0.026 0.486-0.079l9.863-3.288c0.226-0.075 0.431-0.203 0.599-0.37l33.71-33.71c2.41-2.411 2.41-6.335-0.001-8.746zM5.492 39.442l3.066 3.066-4.599 1.533 1.533-4.599zM11.397 41.009l-4.406-4.406 27.705-27.705 4.406 4.406-27.705 27.705zM41.271 11.134l-4.406-4.405 0.023-0.022 4.406 4.406-0.023 0.021zM39.057 4.536l0.558-0.558c1.215-1.215 3.193-1.215 4.406 0 1.215 1.215 1.215 3.192 0 4.406l-0.559 0.559-4.405-4.408z"></path>
</symbol>
<symbol id="icon-search" viewBox="0 0 49 48">
<title>search</title>
<path d="M47.236 39.93l-12.393-12.393-1.671 1.671-2.432-2.348c2.005-2.786 3.19-6.201 3.19-9.895 0-9.37-7.595-16.965-16.965-16.965s-16.965 7.595-16.965 16.965 7.595 16.965 16.965 16.965c3.97 0 7.618-1.367 10.509-3.652l2.355 2.274-1.671 1.671 12.392 12.392c1.847 1.847 4.84 1.847 6.686 0 1.847-1.846 1.847-4.839 0-6.685zM8.040 16.965c0-4.929 3.996-8.925 8.925-8.925s8.925 3.996 8.925 8.925c0 4.929-3.996 8.925-8.925 8.925s-8.925-3.996-8.925-8.925z"></path>
</symbol>
<symbol id="icon-shopping-bag" viewBox="0 0 48 48">
<title>shopping-bag</title>
<path d="M43.49 7.85c-0.708-0.614-4.574-4.154-5.297-4.778-0.718-0.622-1.814-0.672-2.645-0.672h-23.098c-0.828 0-1.925 0.050-2.645 0.672-0.722 0.624-4.589 4.166-5.297 4.778-0.713 0.614-1.303 1.543-1.114 2.861 0.19 1.322 4.536 32.786 4.649 33.535 0.11 0.746 0.763 1.337 1.555 1.354h28.8c0.792-0.017 1.445-0.607 1.555-1.356 0.113-0.746 4.459-32.213 4.651-33.535 0.187-1.315-0.403-2.244-1.116-2.858zM24 28.735c-7.795 0-9.463-11.030-9.809-13.303h4.409c0.662 3.314 2.17 8.986 5.4 8.986s4.74-5.671 5.4-8.986h4.411c-0.348 2.273-2.016 13.303-9.811 13.303zM7.608 9.614l4.392-4.814h24l4.392 4.814h-32.784z"></path>
</symbol>
<symbol id="icon-news" viewBox="0 0 48 48">
<title>news</title>
<path d="M43.5 0h-33c-2.486 0-4.5 2.013-4.5 4.5v3h-1.5c-2.486 0-4.5 2.013-4.5 4.5v30c0 3.313 2.686 6 6 6h36c3.313 0 6-2.687 6-6v-37.5c0-2.487-2.016-4.5-4.5-4.5zM45 42c0 1.653-1.347 3-3 3h-36c-1.654 0-3-1.347-3-3v-30c0-0.828 0.672-1.5 1.5-1.5h1.5v30c0 0.83 0.671 1.5 1.5 1.5s1.5-0.67 1.5-1.5v-36c0-0.828 0.672-1.5 1.5-1.5h33c0.826 0 1.5 0.672 1.5 1.5v37.5zM29.247 19.508c-0.412 0-0.75-0.336-0.75-0.75s0.338-0.75 0.75-0.75h12c0.416 0 0.75 0.336 0.75 0.75s-0.334 0.75-0.75 0.75h-12zM29.247 15.008c-0.412 0-0.75-0.336-0.75-0.75s0.338-0.75 0.75-0.75h12c0.416 0 0.75 0.336 0.75 0.75s-0.334 0.75-0.75 0.75h-12zM29.247 10.508c-0.412 0-0.75-0.336-0.75-0.75s0.338-0.75 0.75-0.75h12c0.416 0 0.75 0.336 0.75 0.75s-0.334 0.75-0.75 0.75h-12zM24.75 40.506c0.414 0 0.75 0.338 0.75 0.75 0 0.416-0.338 0.75-0.75 0.75h-12c-0.414 0-0.75-0.334-0.75-0.75 0-0.412 0.336-0.75 0.75-0.75h12zM24.75 36.006c0.414 0 0.75 0.338 0.75 0.75 0 0.416-0.338 0.75-0.75 0.75h-12c-0.414 0-0.75-0.334-0.75-0.75 0-0.412 0.336-0.75 0.75-0.75h12zM24.75 31.506c0.414 0 0.75 0.338 0.75 0.75 0 0.416-0.338 0.75-0.75 0.75h-12c-0.414 0-0.75-0.334-0.75-0.75 0-0.412 0.336-0.75 0.75-0.75h12zM41.25 40.506c0.412 0 0.75 0.338 0.75 0.75 0 0.416-0.338 0.75-0.75 0.75h-12c-0.416 0-0.75-0.334-0.75-0.75 0-0.412 0.334-0.75 0.75-0.75h12zM41.25 36.006c0.412 0 0.75 0.338 0.75 0.75 0 0.416-0.338 0.75-0.75 0.75h-12c-0.416 0-0.75-0.334-0.75-0.75 0-0.412 0.334-0.75 0.75-0.75h12zM41.25 31.506c0.412 0 0.75 0.338 0.75 0.75 0 0.416-0.338 0.75-0.75 0.75h-12c-0.416 0-0.75-0.334-0.75-0.75 0-0.412 0.334-0.75 0.75-0.75h12zM41.25 22.506c0.412 0 0.75 0.336 0.75 0.75s-0.338 0.75-0.75 0.75h-28.5c-0.414 0-0.75-0.336-0.75-0.75s0.336-0.75 0.75-0.75h28.5zM41.25 27.006c0.412 0 0.75 0.338 0.75 0.75 0 0.416-0.338 0.75-0.75 0.75h-28.5c-0.414 0-0.75-0.334-0.75-0.75 0-0.412 0.336-0.75 0.75-0.75h28.5zM13.5 19.5h10.5c0.83 0 1.5-0.67 1.5-1.5v-10.494c0-0.83-0.67-1.5-1.5-1.5h-10.5c-0.83 0-1.5 0.67-1.5 1.5v10.494c0 0.828 0.67 1.5 1.5 1.5zM15 9h7.5v7.5h-7.5v-7.5z"></path>
</symbol>
<symbol id="icon-mail" viewBox="0 0 48 48">
<title>mail</title>
<path d="M42 7.5h-36c-3.314 0-6 2.688-6 6v19.5c0 3.313 2.686 6 6 6h36c3.313 0 6-2.687 6-6v-19.5c0-3.312-2.687-6-6-6zM3 15.375l10.498 7.875-10.498 7.875v-15.75zM45 33c0 1.656-1.347 3-3 3h-36c-1.654 0-3-1.344-3-3l11.748-8.813 6.552 4.916c0.799 0.597 1.749 0.9 2.7 0.9 0.95 0 1.899-0.302 2.698-0.9l6.553-4.916 11.748 8.813zM45 31.125l-10.5-7.875 10.5-7.875v15.75zM25.799 27.903c-0.524 0.393-1.145 0.6-1.799 0.6s-1.276-0.209-1.8-0.6l-19.2-14.403c0-1.654 1.346-3 3-3h36c1.653 0 3 1.346 3 3l-19.202 14.403z"></path>
</symbol>
<symbol id="icon-paperplane" viewBox="0 0 48 48">
<title>paperplane</title>
<path d="M47.314 0.24c-0.249-0.16-0.532-0.24-0.814-0.24-0.29 0-0.581 0.083-0.832 0.252l-45 30c-0.464 0.307-0.718 0.849-0.658 1.404 0.057 0.553 0.417 1.032 0.934 1.236l11.736 4.697 5.519 9.657c0.264 0.464 0.755 0.75 1.285 0.756 0.006 0 0.011 0 0.016 0 0.527 0 1.015-0.279 1.285-0.729l3.116-5.194 14.543 5.815c0.178 0.072 0.366 0.107 0.556 0.107 0.255 0 0.507-0.064 0.735-0.194 0.396-0.222 0.667-0.612 0.744-1.060l7.5-45c0.098-0.59-0.164-1.181-0.665-1.506zM4.704 31.166l34.762-23.177-25.275 27.055c-0.134-0.080-0.252-0.184-0.399-0.243l-9.088-3.636zM15.284 36.099c-0.003-0.006-0.008-0.009-0.011-0.015l28.415-30.412-24.224 37.743-4.18-7.316zM37.825 44.413l-12.812-5.124c-0.304-0.12-0.621-0.16-0.934-0.178l19.728-30.582-5.982 35.885z"></path>
</symbol>
<symbol id="icon-banknote" viewBox="0 0 48 48">
<title>banknote</title>
<path d="M47.123 15.879l-15-15c-0.744-0.744-1.823-1.042-2.844-0.79-0.539 0.132-1.020 0.41-1.401 0.79-0.341 0.341-0.597 0.762-0.744 1.233-0.679 2.204-1.854 4.119-3.593 5.856-2.322 2.32-5.346 4.079-8.545 5.937-3.396 1.968-6.904 4.008-9.78 6.882-2.444 2.447-4.107 5.168-5.082 8.326-0.329 1.066-0.042 2.22 0.744 3.009l15 15c0.744 0.744 1.823 1.042 2.844 0.79 0.538-0.135 1.020-0.409 1.401-0.79 0.34-0.341 0.597-0.762 0.744-1.236 0.681-2.204 1.855-4.119 3.595-5.856 2.32-2.321 5.343-4.075 8.546-5.932 3.393-1.971 6.903-4.011 9.777-6.885 2.444-2.444 4.107-5.168 5.083-8.327 0.327-1.065 0.039-2.223-0.745-3.008zM18 45c-4.968-4.968-10.032-10.034-15-15 4.263-13.802 22.74-13.198 27-27 4.968 4.966 10.034 10.032 15.003 15-4.264 13.798-22.741 13.198-27.003 27zM29.343 22.35c-0.489-0.41-0.981-0.689-1.476-0.827-0.492-0.138-0.984-0.193-1.482-0.157-0.492 0.038-0.996 0.15-1.5 0.343-0.504 0.197-1.011 0.41-1.521 0.657-0.805-0.925-1.611-1.84-2.416-2.689 0.363-0.328 0.715-0.495 1.054-0.507 0.341-0.015 0.668 0.021 0.978 0.099 0.316 0.080 0.606 0.147 0.873 0.2 0.27 0.052 0.504-0.006 0.71-0.178 0.217-0.188 0.337-0.431 0.354-0.723 0.015-0.296-0.096-0.584-0.343-0.864-0.316-0.363-0.697-0.583-1.155-0.664-0.451-0.080-0.913-0.073-1.395 0.032-0.474 0.108-0.926 0.287-1.353 0.538s-0.771 0.51-1.026 0.762c-0.098-0.093-0.195-0.184-0.293-0.276-0.108-0.099-0.243-0.153-0.405-0.15-0.163 0-0.299 0.071-0.409 0.2-0.108 0.126-0.158 0.273-0.138 0.428 0.015 0.16 0.079 0.283 0.191 0.378 0.098 0.082 0.195 0.163 0.293 0.249-0.384 0.463-0.701 0.975-0.95 1.515-0.252 0.542-0.402 1.078-0.457 1.599-0.059 0.525-0.003 1.005 0.157 1.451 0.16 0.448 0.457 0.829 0.891 1.189 0.707 0.586 1.538 0.835 2.502 0.78 0.962-0.059 1.998-0.345 3.113-0.944 0.885 1.023 1.773 2.039 2.66 2.982-0.375 0.316-0.704 0.498-0.993 0.556-0.29 0.062-0.547 0.056-0.782-0.015-0.234-0.073-0.451-0.178-0.651-0.313-0.2-0.138-0.396-0.255-0.593-0.351-0.194-0.096-0.393-0.15-0.597-0.153s-0.421 0.096-0.662 0.302c-0.246 0.215-0.369 0.463-0.369 0.744 0 0.279 0.129 0.563 0.381 0.849 0.255 0.287 0.586 0.528 0.987 0.718s0.853 0.311 1.352 0.343c0.498 0.034 1.023-0.041 1.576-0.246 0.556-0.203 1.107-0.569 1.65-1.113 0.261 0.255 0.525 0.498 0.787 0.732 0.111 0.096 0.246 0.144 0.41 0.132 0.157-0.006 0.295-0.080 0.405-0.212 0.111-0.135 0.158-0.283 0.141-0.439-0.015-0.158-0.080-0.279-0.188-0.366-0.264-0.212-0.528-0.434-0.791-0.668 0.448-0.55 0.809-1.131 1.075-1.706 0.267-0.578 0.425-1.134 0.477-1.65 0.052-0.519-0.009-0.987-0.178-1.412-0.168-0.431-0.467-0.799-0.894-1.155zM20.956 23.367c-0.424 0.018-0.795-0.123-1.119-0.436-0.138-0.132-0.234-0.293-0.293-0.483-0.061-0.191-0.082-0.399-0.058-0.627 0.021-0.225 0.088-0.461 0.206-0.698 0.111-0.237 0.276-0.474 0.486-0.703 0.76 0.756 1.519 1.585 2.28 2.443-0.576 0.317-1.077 0.486-1.502 0.504zM28.032 26.37c-0.135 0.249-0.29 0.471-0.471 0.665-0.842-0.849-1.681-1.782-2.52-2.739 0.215-0.096 0.44-0.197 0.682-0.298s0.486-0.169 0.729-0.212c0.249-0.038 0.495-0.027 0.741 0.032 0.243 0.062 0.474 0.194 0.689 0.402 0.211 0.211 0.345 0.43 0.399 0.668 0.059 0.24 0.062 0.483 0.021 0.732-0.044 0.251-0.132 0.499-0.27 0.752zM22.076 33.27c0.295-0.238 0.73-0.226 1.002 0.050 0.294 0.292 0.294 0.771 0 1.063-0.024 0.024-0.050 0.041-0.077 0.062l0.003 0.003c-0.95 0.722-1.73 1.371-2.571 2.213-0.761 0.759-1.447 1.559-2.041 2.37l-0.959 1.313c-0.030 0.054-0.066 0.104-0.111 0.15-0.294 0.293-0.773 0.293-1.065 0-0.255-0.255-0.287-0.648-0.099-0.941l-0.003-0.003 1.026-1.401c0.64-0.876 1.377-1.734 2.192-2.549 0.848-0.85 1.762-1.609 2.7-2.33h0.003zM27.567 11.572c0.759-0.759 1.445-1.556 2.040-2.371l0.996-1.365c0.036-0.065 0.076-0.129 0.132-0.184 0.296-0.296 0.774-0.296 1.070 0 0.281 0.282 0.293 0.728 0.037 1.026l0.003 0.003-1.026 1.407c-0.642 0.876-1.377 1.731-2.191 2.546-0.848 0.847-1.761 1.61-2.698 2.33l-0.006-0.003c-0.299 0.274-0.762 0.268-1.049-0.021-0.295-0.295-0.295-0.777 0-1.072 0.053-0.056 0.114-0.095 0.175-0.129 0.882-0.674 1.733-1.38 2.517-2.165z"></path>
</symbol>
<symbol id="icon-fire" viewBox="0 0 48 48">
<title>fire</title>
<path d="M20.297 2.109c2.344 6.281 1.125 9.703-1.5 12.422-2.859 3-7.313 5.25-10.453 9.656-4.172 5.859-4.875 18.75 10.172 22.125-6.328-3.328-7.688-12.984-0.844-19.031-1.781 5.859 1.5 9.609 5.578 8.25 3.984-1.359 6.609 1.5 6.516 4.781-0.047 2.25-0.938 4.172-3.234 5.25 9.797-1.734 13.734-9.844 13.734-16.031 0-8.156-7.266-9.281-3.609-16.125-4.359 0.375-5.859 3.234-5.438 7.922 0.281 3.094-2.953 5.203-5.344 3.797-1.922-1.172-1.875-3.422-0.188-5.109 3.609-3.563 5.016-11.766-5.391-17.906z"></path>
</symbol>
<symbol id="icon-shop" viewBox="0 0 48 48">
<title>shop</title>
<path d="M47.1 16.8l-4.5-5.997c-0.175-0.236-0.384-0.44-0.6-0.635v-7.168c0-1.656-1.344-3-3-3h-30c-1.658 0-3 1.344-3 3v7.17c-0.216 0.194-0.425 0.396-0.6 0.63l-4.498 5.999c-0.582 0.774-0.901 1.732-0.901 2.701v1.5c0 2.481 2.019 4.5 4.5 4.5v0 19.5c0 1.656 1.344 3 3 3h33c1.656 0 3-1.344 3-3v-19.5c2.481 0 4.5-2.019 4.5-4.5v-1.5c0-0.969-0.32-1.928-0.9-2.7zM39 3v6h-30v-6h30zM15.29 22.5h-6.284l6-10.5h3.284l-3 10.5zM19.851 12h3.399v10.5h-6.399l3-10.5zM24.75 12h3.399l3 10.5h-6.399v-10.5zM29.707 12h3.284l6 10.5h-6.284l-3-10.5zM3 21v-1.5c0-0.326 0.105-0.64 0.3-0.9l4.5-6c0.284-0.378 0.727-0.6 1.2-0.6h4.278l-6 10.5h-2.778c-0.828 0-1.5-0.67-1.5-1.5zM30 45h-11.25v-15h11.25v15zM40.5 45h-9v-15c0-0.83-0.674-1.5-1.5-1.5h-11.25c-0.828 0-1.5 0.67-1.5 1.5v15h-9.75v-19.5h33v19.5zM45 21c0 0.83-0.67 1.5-1.5 1.5h-2.781l-6-10.5h4.281c0.471 0 0.916 0.222 1.198 0.6l4.5 6c0.197 0.259 0.302 0.575 0.302 0.9v1.5z"></path>
</symbol>
<symbol id="icon-wallet" viewBox="0 0 48 48">
<title>wallet</title>
<path d="M38.4 14.4h-30v-1.2l26.4-2.112v2.112h3.6v-3.6c0-2.64-2.138-4.493-4.75-4.121l-24.098 3.442c-2.614 0.374-4.752 2.839-4.752 5.479v24c0 2.65 2.148 4.8 4.8 4.8h28.8c2.65 0 4.8-2.15 4.8-4.8v-19.2c0-2.65-2.15-4.8-4.8-4.8zM34.8 31.214c-1.987 0-3.6-1.613-3.6-3.6s1.613-3.6 3.6-3.6 3.6 1.613 3.6 3.6-1.613 3.6-3.6 3.6z"></path>
</symbol>
<symbol id="icon-right-arrow" viewBox="0 0 27 48">
<title>right-arrow</title>
<path d="M5.646 48l21.513-24.201-21.513-23.799h-5.646c0 0 11.428 10.759 11.428 23.799s-11.428 24.201-11.428 24.201h5.646z"></path>
</symbol>
<symbol id="paint-underline" viewBox="0 0 206.5 12">
<title>paint-underline</title>
<path d="M162.589,4.538c-0.22-0.006-0.367-0.011-0.588,0.022l0.069,0.196l-0.073-0.002c-0.146-0.043-0.219-0.045-0.292-0.047
	c0.074-0.037,0.149-0.073,0.296-0.108l0.001-0.039c-0.145-0.082-0.291-0.125-0.437-0.129c-0.44-0.013-0.669,0.369-1.256,0.352
	c-0.22-0.006-0.365-0.088-0.362-0.205c0.002-0.078,0.077-0.153,0.078-0.192c0.001-0.039-0.072-0.08-0.218-0.084
	c-0.293-0.009-0.884,0.13-0.885,0.169c-0.014,0.583-0.963,0.361-2.069,0.562c0.363,0.166,0.802,0.218,1.462,0.237
	c0.587,0.017,1.248-0.003,2.202,0.025c1.32,0.038,3.152,0.169,5.636,0.668c0.147,0.004,0.443-0.104,0.664-0.136l-0.072-0.041
	c2.346,0.107,4.752,0.798,7.099,0.866c0.44,0.013,0.954-0.011,1.396-0.076c0.071,0.08,0.217,0.123,0.364,0.127
	c0.22,0.006,0.442-0.065,0.663-0.097c0.428,0.518,3.364,0.525,4.977,0.61c0.293,0.009,0.587,0.017,0.881-0.013
	c-1.173-0.073-1.896-0.521-2.62-0.931l-0.073-0.002c-0.227,0.266-0.158,0.462-0.598,0.449c-0.367-0.011-0.733-0.06-1.026-0.068
	c0.002-0.078,0.076-0.114,0.077-0.153c0.003-0.116-0.143-0.16-0.29-0.164c-0.44-0.013-0.812,0.171-1.401,0.271
	c-0.144-0.121-0.216-0.162-0.363-0.166c-0.22-0.006-0.443,0.104-0.664,0.136c-0.357-0.399-0.793-0.606-0.94-0.61
	c-0.513-0.015-1.397,0.115-2.057,0.096c-1.907-0.055-4.75-0.876-5.557-0.899c-0.44-0.013-1.474,0.268-2.135,0.249
	c-1.027-0.03-1.75-0.478-2.407-0.653l0.001-0.039c0.586,0.056,1.173,0.073,1.759,0.09C163.467,4.68,163.029,4.551,162.589,4.538z
	 M189.814,7.929c0.724,0.41,1.015,0.535,1.748,0.556c0.293,0.009,0.514,0.015,0.881-0.013c-0.803-0.179-1.391-0.157-1.894-0.599
	c0.222-0.071,0.518-0.179,0.738-0.173c0.587,0.017,1.463,0.198,2.196,0.258c-1.532-0.394-3.216-0.559-4.755-0.682
	c-0.001,0.039-0.075,0.076-0.076,0.114c0.362,0.205,0.725,0.371,1.087,0.576L189.814,7.929z M202.474,9.539
	c0.006-0.272-2.479-0.694-3.433-0.721c-0.147-0.004-0.294,0.03-0.442,0.065c0.216,0.162,0.285,0.358,0.872,0.375
	c0.293,0.009,0.589-0.061,0.882-0.052C201.087,9.227,201.742,9.441,202.474,9.539z M96.874,2.366
	c0.147,0.004,0.291,0.125,0.363,0.166c-0.809,0.054-1.617,0.109-2.351,0.088c-0.514-0.015-1.099-0.071-1.683-0.204
	C94.525,2.376,95.699,2.371,96.874,2.366z M141.826,4.132c-0.15,0.112-0.3,0.263-0.302,0.341c-0.006,0.233,2.049,0.254,3.223,0.287
	C143.145,4.248,142.472,4.773,141.826,4.132z M100.174,2.5c0.588-0.022,1.249-0.042,1.836-0.025
	c0.147,0.004,0.291,0.086,0.364,0.127c-0.074,0.037-0.15,0.151-0.224,0.149C101.636,2.737,100.168,2.733,100.174,2.5z
	 M204.737,10.032c-0.51-0.17-1.021-0.263-1.608-0.28c-0.22-0.006-0.441,0.026-0.661,0.02c0.217,0.123,0.436,0.207,0.653,0.33
	C203.635,10.078,204.223,10.056,204.737,10.032z M170.425,5.309c0.511,0.131,1.384,0.429,1.825,0.441
	c0.22,0.006,0.367,0.011,0.592-0.216c-0.734-0.021-1.611-0.163-2.344-0.223L170.425,5.309z M67.877,2.499
	c-0.001,0.039-0.002,0.078,0.071,0.119c-0.514,0.024-1.032,0.203-1.399,0.193c-0.293-0.008-0.439-0.051-0.435-0.246L67.877,2.499z
	 M148.555,5.143c0.075-0.076,0.077-0.153,0.151-0.19l-1.755-0.284c-0.002,0.078-0.003,0.116-0.078,0.192
	C147.459,4.956,147.97,5.048,148.555,5.143z M80.239,1.224c0.512,0.092,0.804,0.14,1.024,0.146c0.367,0.011,0.515-0.063,0.96-0.244
	c-0.148,0.035-0.294,0.03-0.441,0.026c-0.22-0.006-0.439-0.052-0.659-0.058C80.829,1.086,80.535,1.116,80.239,1.224z M185.925,7.856
	c0.367,0.011,0.807,0.023,1.101-0.007c-0.364-0.127-0.8-0.295-1.167-0.306c-0.147-0.004-0.295,0.069-0.444,0.143
	C185.635,7.731,185.778,7.852,185.925,7.856z M114.336,2.676c0.147,0.004,0.365,0.088,0.657,0.136
	c-0.588,0.022-1.324,0.117-1.621,0.264c-0.366-0.049-1.026-0.069-1.022-0.224c0.292,0.047,0.878,0.103,1.245,0.114
	C113.894,2.741,114.116,2.67,114.336,2.676z M125.479,3.232c0.147,0.004,0.437,0.129,0.73,0.177
	c-0.294,0.03-0.517,0.141-0.811,0.132c-0.22-0.006-0.438-0.091-0.581-0.25C125.185,3.262,125.333,3.227,125.479,3.232z
	 M124.836,2.513c0.22,0.006,0.877,0.181,1.463,0.198c-0.223,0.11-0.444,0.143-0.664,0.136c-0.147-0.004-1.095-0.265-1.167-0.306
	C124.615,2.546,124.762,2.511,124.836,2.513z M109.855,2.819c-0.514,0.024-1.029,0.048-1.469,0.035
	c0.078-0.192,0.227-0.266,0.447-0.259C109.126,2.603,109.49,2.73,109.855,2.819z M88.287,2.312c0.367,0.011,0.733,0.06,0.728,0.254
	c-0.66-0.019-1.248,0.003-1.242-0.269L88.287,2.312z M150.682,5.204c0.66,0.019,1.1,0.032,1.906,0.094
	c-0.511-0.131-0.801-0.256-1.168-0.267C151.201,5.025,150.979,5.096,150.682,5.204z M76.541,2.4c0.073,0.002,0.22,0.006,0.366,0.049
	c-0.369,0.106-0.886,0.208-1.402,0.309C75.879,2.458,76.174,2.389,76.541,2.4z M77.155,1.251l0.001-0.039
	c-0.074,0.037-0.074,0.037-0.148,0.035c0.512,0.092,0.878,0.103,1.39,0.196c-0.289-0.203-0.506-0.326-0.726-0.332
	C77.526,1.107,77.304,1.178,77.155,1.251z M90.778,2.5C91,2.429,91.149,2.356,91.295,2.36c0.293,0.008,0.585,0.095,0.877,0.142
	L91.51,2.599C91.363,2.595,91.217,2.552,90.778,2.5z M97.31,2.534c0.294-0.03,0.662-0.059,1.252-0.158
	c-0.299,0.225-0.595,0.333-0.815,0.326C97.6,2.698,97.455,2.616,97.31,2.534z M117.403,3.348c0.438,0.09,0.877,0.142,1.317,0.194
	c-0.292-0.086-0.579-0.328-0.873-0.336c-0.073-0.002-0.221,0.033-0.37,0.106L117.403,3.348z M80.281,2.547
	c-0.441,0.026-0.954,0.011-1.395-0.001c0.297-0.147,0.445-0.181,0.665-0.175C79.698,2.375,79.917,2.42,80.281,2.547z M139.329,4.215
	c-0.147-0.004-0.513-0.015-0.519,0.218l1.175-0.044C139.767,4.306,139.549,4.222,139.329,4.215z M187.392,7.898
	c0.511,0.131,0.948,0.261,1.386,0.351c0.075-0.075,0.076-0.114,0.151-0.19L187.392,7.898z M49.954,3.069
	c0.367,0.011,0.733,0.021,1.101-0.007c-0.005,0.233-0.665,0.175-1.178,0.16C49.951,3.186,49.953,3.108,49.954,3.069z M99.026,1.378
	c0.512,0.054,0.879,0.064,1.246,0.075c-0.144-0.121-0.289-0.203-0.435-0.207C99.616,1.24,99.394,1.311,99.026,1.378z M90.805,1.374
	c0.221-0.032,0.81-0.093,0.957-0.128c-0.145-0.082-0.217-0.123-0.364-0.127c-0.293-0.008-0.516,0.102-0.665,0.175
	C90.733,1.333,90.732,1.372,90.805,1.374z M145.512,3.461c0.441-0.026,0.881-0.013,1.321-0.001c0.003-0.117-1.024-0.146-1.318-0.155
	L145.512,3.461z M70.521,2.459c0.366,0.049,0.733,0.06,1.173,0.073c-0.369,0.067-0.811,0.132-1.105,0.162
	C70.517,2.614,70.519,2.537,70.521,2.459z M64.812,1.75c0.148-0.035,0.368-0.028,0.514-0.024s0.217,0.123,0.29,0.164
	c-0.147-0.004-0.368,0.028-0.514,0.024C64.882,1.907,64.81,1.827,64.812,1.75z M85.204,2.339c-0.147-0.004,1.688,0.01,1.684,0.165
	C86.302,2.449,85.641,2.469,85.204,2.339z M131.122,3.628c-0.221,0.033-0.295,0.069-0.369,0.067
	c-0.22-0.006-0.292-0.086-0.363-0.166c0.147,0.004,0.222-0.071,0.369-0.067C130.832,3.464,130.977,3.546,131.122,3.628z
	 M140.205,4.396c0.145,0.082,0.291,0.086,0.438,0.09c0.147,0.004,0.221-0.032,0.294-0.03c-0.145-0.082-0.29-0.164-0.436-0.207
	C140.429,4.247,140.28,4.359,140.205,4.396z M186.53,7.096c-0.148,0.035-0.222,0.071-0.369,0.067
	c0.072,0.08,0.216,0.162,0.289,0.203c0,0,0.221-0.032,0.222-0.071C186.674,7.217,186.602,7.176,186.53,7.096z M153.429,3.923
	c-0.072-0.08-0.07-0.157-0.143-0.16c-0.147-0.004-0.294,0.03-0.441,0.026c0.145,0.082,0.07,0.158,0.29,0.164
	C153.208,3.956,153.355,3.921,153.429,3.923z M140.237,3.075c0.218,0.084,0.512,0.092,0.805,0.101l0.587,0.017
	C141.264,3.105,140.75,3.09,140.237,3.075z M112.659,2.2c-0.071-0.08-0.143-0.16-0.141-0.237l0.221-0.032
	c0.072,0.041,0.144,0.121,0.215,0.201C112.881,2.129,112.733,2.164,112.659,2.2z M150.5,3.605c-0.001,0.039-0.002,0.078,0.071,0.119
	c0.221-0.033,0.588-0.022,0.811-0.132C151.088,3.583,150.794,3.614,150.5,3.605z M72.23,1.576c0.294-0.03,0.514-0.024,0.808-0.016
	c-0.222,0.071-0.443,0.104-0.737,0.134C72.301,1.655,72.229,1.614,72.23,1.576z M73.751,2.436c-0.223,0.11-0.296,0.108-0.369,0.106
	c-0.147-0.004-0.219-0.045-0.293-0.047c0.148-0.035,0.223-0.11,0.443-0.104C73.605,2.393,73.605,2.393,73.751,2.436z M172.002,6.87
	c0.002-0.078-0.218-0.084-0.438-0.09l-0.44-0.013c-0.002,0.078,0.292,0.086,0.512,0.093L172.002,6.87z M65.452,2.623
	c-0.148,0.035-0.222,0.071-0.295,0.069c-0.22-0.006-0.366-0.049-0.585-0.095c0.147,0.004,0.221-0.033,0.368-0.028
	C65.086,2.574,65.232,2.617,65.452,2.623z M169.248,5.391c0.003-0.117-0.585-0.095-0.804-0.14
	C168.441,5.368,168.955,5.383,169.248,5.391z M119.111,2.503c-0.072-0.08-0.216-0.162-0.216-0.162
	c0.148-0.035,0.222-0.071,0.296-0.108c0.073,0.002,0.146,0.043,0.145,0.082C119.334,2.393,119.187,2.389,119.111,2.503z M89.83,2.24
	c-0.001,0.039,0.072,0.08,0.071,0.119c-0.074,0.037-0.148,0.035-0.295,0.069c0.001-0.039-0.071-0.08-0.071-0.119
	C89.537,2.231,89.684,2.236,89.83,2.24z M56.118,3.131c-0.073-0.002-0.219-0.045-0.366-0.049c0.074-0.037,0.222-0.071,0.295-0.069
	c0.147,0.004,0.292,0.047,0.438,0.09C56.339,3.098,56.265,3.135,56.118,3.131z M46.004,2.489c-0.146-0.043-0.219-0.045-0.292-0.047
	c0.148-0.035,0.295-0.069,0.442-0.065c0.073,0.002,0.219,0.045,0.292,0.086C46.298,2.458,46.151,2.493,46.004,2.489z M122.621,3.071
	c0.072,0.041,0.145,0.082,0.216,0.162l-0.293-0.008c-0.073-0.041-0.145-0.082-0.218-0.084C122.4,3.104,122.547,3.069,122.621,3.071z
	 M39.442,3.737c-0.146-0.043-0.293-0.047-0.366-0.049c0.148-0.035,0.295-0.069,0.515-0.063c0.073,0.002,0.146,0.043,0.218,0.084
	C39.663,3.705,39.515,3.739,39.442,3.737z M45.473,3.212c0.439,0.052,0.659,0.058,0.879,0.064c-0.148,0.035-0.295,0.069-0.442,0.065
	C45.837,3.339,45.691,3.296,45.473,3.212z M107.058,3.127c0.147,0.004,0.221-0.033,0.294-0.03c-0.072-0.041-0.218-0.084-0.365-0.088
	c-0.073-0.002-0.221,0.033-0.295,0.069C106.839,3.082,106.985,3.125,107.058,3.127z M178.331,6.198
	c0.148-0.035,0.221-0.033,0.295-0.069c-0.073-0.002-0.145-0.082-0.218-0.084c-0.147-0.004-0.221,0.033-0.295,0.069
	C178.186,6.116,178.258,6.157,178.331,6.198z M135.072,4.209c-0.073-0.002-0.146-0.043-0.292-0.086
	c-0.073-0.002-0.148,0.035-0.222,0.071c0.073,0.041,0.145,0.082,0.218,0.084C134.85,4.28,134.997,4.246,135.072,4.209z
	 M69.419,2.505c-0.149,0.073-0.224,0.149-0.297,0.147L68.977,2.57c0.074-0.037,0.075-0.076,0.149-0.112
	C69.199,2.46,69.272,2.501,69.419,2.505z M197.501,8.735c-0.072-0.041-0.07-0.119-0.07-0.158c-0.148,0.035-0.221,0.033-0.295,0.069
	c-0.001,0.039,0.072,0.08,0.071,0.119C197.281,8.767,197.355,8.731,197.501,8.735z M54.087,2.1
	c-0.148,0.035-0.222,0.071-0.222,0.071c-0.147-0.004-0.219-0.045-0.365-0.088c0.074-0.037,0.074-0.037,0.148-0.035
	C53.795,2.053,53.868,2.055,54.087,2.1z M51.154,1.977c0.003-0.116-0.217-0.123-0.364-0.127c0.071,0.08,0.071,0.119,0.143,0.16
	C51.007,2.011,51.081,1.975,51.154,1.977z M88.677,1.351c0.004-0.155-0.217-0.123-0.364-0.127c0.072,0.041,0.07,0.119,0.143,0.16
	C88.529,1.386,88.604,1.349,88.677,1.351z M158.158,5.693c-0.072-0.041-0.145-0.082-0.218-0.084
	c-0.147-0.004-0.221,0.032-0.294,0.03c0.073,0.041,0.145,0.082,0.218,0.084C157.937,5.725,158.084,5.69,158.158,5.693z
	 M123.304,2.119c0.146,0.043,0.365,0.088,0.732,0.099C123.964,2.138,123.671,2.13,123.304,2.119z M149.032,3.602
	c-0.22-0.006-0.367-0.011-0.513-0.054c-0.001,0.039,0.071,0.119,0.07,0.158L149.032,3.602z M67.016,1.658
	c-0.005,0.194-0.153,0.268-0.3,0.263C66.939,1.811,66.719,1.805,67.016,1.658z M76.787,1.319c0.073,0.002,0.148-0.035,0.222-0.071
	c-0.147-0.004-0.513-0.015-0.588,0.022C76.568,1.273,76.64,1.314,76.787,1.319z M57.96,2.834c-0.073-0.002-0.221,0.033-0.294,0.03
	c0,0-0.072-0.041-0.071-0.08c0.073,0.002,0.148-0.035,0.221-0.033C57.889,2.754,57.888,2.793,57.96,2.834z M195.953,9.04
	c0.002-0.078-0.145-0.082-0.365-0.088c-0.002,0.078,0.072,0.08,0.145,0.082L195.953,9.04z M94.991,1.301
	c-0.002,0.078-0.004,0.155,0.069,0.196c0.001-0.039,0.076-0.114,0.078-0.192L94.991,1.301z M188.069,7.218
	c-0.074,0.037-0.148,0.035-0.148,0.035c0.072,0.08,0.071,0.119,0.143,0.16c0.001-0.039,0.074-0.037,0.074-0.037
	C188.139,7.337,188.067,7.296,188.069,7.218z M105.985,1.968c0.074-0.037,0.149-0.112,0.15-0.151
	c0.073,0.041,0.145,0.082,0.291,0.125C106.279,1.938,106.132,1.934,105.985,1.968z M93.741,1.381
	c0.074-0.037,0.148-0.073,0.15-0.112c-0.073-0.002-0.293-0.008-0.294,0.03L93.741,1.381z M194.655,8.069
	c-0.002,0.078,0.292,0.086,0.292,0.086c0.002-0.078-0.072-0.08-0.145-0.082L194.655,8.069z M100.937,1.278
	c-0.075,0.076-0.149,0.112-0.224,0.149l0.369-0.067L100.937,1.278z M176.056,6.171c0.072,0.041,0.072,0.041,0.146,0.043
	c0.073,0.002,0.147,0.004,0.221-0.033c-0.073-0.002-0.072-0.041-0.072-0.041C176.277,6.139,176.129,6.173,176.056,6.171z
	 M33.635,4.075l0.074-0.037c0.073,0.002,0.146,0.043,0.218,0.084C33.854,4.12,33.854,4.12,33.78,4.156L33.635,4.075z M181.554,6.486
	c0.073,0.002,0.074-0.037,0.221-0.032c-0.073-0.002-0.146-0.043-0.219-0.045c-0.073-0.002-0.074,0.037-0.148,0.035
	C181.407,6.481,181.48,6.484,181.554,6.486z M167.419,5.144c0.147,0.004,0.148-0.035,0.149-0.112
	c-0.073-0.002-0.148,0.035-0.148,0.035L167.419,5.144z M113.541,2.148c-0.073-0.041-0.146-0.043-0.145-0.082l0.223-0.11
	C113.544,2.032,113.542,2.109,113.541,2.148z M47.818,3.357c-0.147-0.004-0.146-0.043-0.145-0.082l0.22,0.006
	C47.82,3.28,47.819,3.319,47.818,3.357z M150.025,5.069c-0.147-0.004-0.147-0.004-0.148,0.073l0.073,0.002
	C150.023,5.146,150.023,5.146,150.025,5.069z M123.789,3.338c0.001-0.039-0.072-0.041-0.072-0.041s0.075-0.076,0.149-0.073
	l-0.002,0.078L123.789,3.338z M145.705,4.633c0.073,0.002,0.148-0.035,0.148-0.035l-0.145-0.082L145.705,4.633z M60.312,2.708
	c0.147,0.004,0.145,0.082,0.145,0.082L60.31,2.786L60.312,2.708z M39.61,2.809c-0.001,0.039-0.074,0.037-0.148,0.035l0.002-0.078
	C39.538,2.768,39.611,2.77,39.61,2.809z M90.073,1.275l-0.074,0.037c-0.001,0.039-0.001,0.039,0.072,0.08
	c0.001-0.039,0.001-0.039,0.075-0.076L90.073,1.275z M183.221,7.35c-0.001,0.039,0.072,0.08,0.072,0.08
	c0.001-0.039,0.074-0.037,0.149-0.073L183.221,7.35z M58.645,1.805c0.073,0.002,0.221-0.033,0.294-0.03
	c-0.074,0.037-0.149,0.073-0.222,0.071C58.718,1.846,58.719,1.807,58.645,1.805z M151.804,4.343c0.073,0.002,0.22,0.006,0.368-0.028
	c-0.074,0.037-0.222,0.071-0.222,0.071C151.876,4.384,151.877,4.345,151.804,4.343z M187.173,7.853
	c0.073,0.002,0.146,0.043,0.219,0.045c-0.072-0.041-0.146-0.043-0.218-0.084c-0.073-0.002-0.074,0.037-0.148,0.035L187.173,7.853z
	 M159.111,5.72c-0.073-0.002-0.147-0.004-0.219-0.045c-0.001,0.039-0.002,0.078,0.071,0.08
	C158.964,5.755,159.038,5.718,159.111,5.72z M42.385,3.434c0.073,0.002,0.072,0.041,0.072,0.041
	c-0.073-0.002-0.074,0.037-0.148,0.035L42.385,3.434z M140.133,4.355l-0.148,0.035l0.22,0.006L140.133,4.355z M99.22,2.473
	c0.072,0.041,0.071,0.08,0.071,0.08l-0.146-0.043C99.146,2.509,99.219,2.511,99.22,2.473z M176.797,5.882l-0.072-0.041l-0.002,0.078
	L176.797,5.882z M49.498,3.717c0.073,0.002,0.072,0.041,0.146,0.043c0.001-0.039-0.072-0.041-0.072-0.041L49.498,3.717z
	 M149.106,3.604c0,0,0.001-0.039,0.075-0.076l-0.148,0.073L149.106,3.604z M154.225,4.374c0.001-0.039-0.073-0.041-0.146-0.043
	C154.153,4.333,154.152,4.372,154.225,4.374z M163.976,4.85l-0.146-0.043C163.903,4.848,163.903,4.848,163.976,4.85z M100.638,1.503
	c-0.073-0.002-0.22-0.006-0.293-0.047c-0.37,0.145-0.666,0.214-1.106,0.201c-0.66-0.019-1.241-0.269-1.975-0.29
	c-1.027-0.03-2.871,0.345-3.238,0.334c-0.367-0.011-0.65-0.446-1.457-0.47c-0.22-0.006-0.514,0.024-0.734,0.018
	c0.216,0.162,0.436,0.168,0.727,0.293c-0.886,0.208-1.18,0.238-1.987,0.215c-0.953-0.028-2.484-0.499-3.217-0.521
	c-0.293-0.008-0.447,0.298-0.814,0.287c-0.22-0.006-0.512-0.054-0.732-0.06c-0.22-0.006-0.368,0.028-0.516,0.102
	c-0.072-0.041-0.072-0.041-0.072-0.08c0.44,0.013,0.516-0.102,0.741-0.289c-2.056,0.018-3.682,0.515-6.176,0.443
	c-0.22-0.006-0.512-0.054-0.732-0.099c-1.403,0.348-3.012,0.107-4.554,0.14c0.446-0.22,0.668-0.292,0.889-0.363
	c-0.293-0.009-0.586-0.056-0.879-0.064c-0.513-0.015-0.884,0.13-1.254,0.275c-0.067-0.274-0.358-0.36-0.725-0.371
	c-0.514-0.015-1.397,0.115-1.986,0.176c0.145,0.082,0.582,0.211,0.581,0.25c-0.076,0.114-0.15,0.151-0.224,0.149
	c-1.027-0.03-1.023-0.185-1.311-0.427c-0.37,0.106-1.336,0.622-1.629,0.614c0,0-0.132-0.626-1.746-0.672
	c-1.54-0.045-1.995,0.564-2.582,0.547c-0.22-0.006-0.22-0.006-0.51-0.17l0.443-0.104c-0.293-0.008-0.586-0.056-0.879-0.064
	c-0.807-0.023-0.962,0.322-1.475,0.307c-0.147-0.004-0.366-0.049-0.509-0.209c-0.587-0.017-0.376,0.378-0.743,0.367
	c-0.22-0.006-0.509-0.209-0.729-0.215c-0.073-0.002-0.148,0.035-0.222,0.071c-0.218-0.084-0.438-0.09-0.658-0.097
	c-1.467-0.042-1.846,0.452-3.533,0.403c-0.367-0.011-0.357-0.399-0.798-0.412c-1.1-0.032-2.362,0.554-3.022,0.535
	c-0.513-0.015-1.241-0.308-1.901-0.327c-1.54-0.044-3.382,0.213-5.069,0.203c-0.734,0.018-1.33,0.35-2.136,0.327
	c-0.147-0.004-0.366-0.049-0.512-0.092c-0.152,0.229-0.154,0.306-0.301,0.302c-0.367-0.011-0.655-0.252-1.168-0.267
	c-4.548-0.132-9.119,0.747-13.674,0.887c-2.424,0.085-4.042,0.194-6.616,0.431l-0.073-0.002c-0.588,0.022-1.176,0.083-1.838,0.141
	C15.875,3.95,2.714,4.891,2.699,5.512C2.698,5.551,2.769,5.67,2.767,5.747C2.766,5.786,2.618,5.821,2.471,5.856
	c-0.072-0.08-0.141-0.237-0.214-0.239c0,0-0.37,0.106-0.378,0.456C1.875,6.227,2.019,6.309,2.384,6.397
	C2.088,6.505,2.013,6.581,2.012,6.62l0.073,0.002c0.22,0.006,1.306,0.66,1.526,0.666c0.587,0.017,1.247,0.036,1.836-0.025
	C11.48,6.66,17.368,5.975,23.401,5.372c2.722-0.271,5.877-0.219,8.601-0.529c8.463-0.921,17.57-1.163,26.68-1.483l0.147,0.004
	c3.453-0.133,6.91-0.422,10.504-0.318c4.108,0.119,8.303-0.382,12.338-0.265c0.44,0.013,0.879,0.064,1.319,0.077
	c0.734,0.021,1.471-0.113,2.204-0.092c0.514,0.015,1.097,0.187,1.683,0.204c0.293,0.008,0.514-0.024,0.811-0.132
	c6.091,0.059,12.469,0.399,18.493,0.185c-0.363-0.166-0.802-0.217-1.169-0.228c-0.367-0.011-0.735,0.018-1.028,0.009
	c-0.367-0.011-0.732-0.06-1.022-0.224c0.736-0.095,1.177-0.121,1.185-0.432c0.006-0.272-0.211-0.395-0.431-0.401
	c-0.147-0.004-0.882,0.052-1.178,0.16c-0.218-0.084-0.436-0.207-0.582-0.211c-0.221,0.032-0.369,0.067-0.515,0.063
	C101.146,1.751,100.855,1.626,100.638,1.503z M106.5,1.906c-0.146-0.043-0.218-0.084-0.364-0.127c0.075-0.075,0.078-0.192,0.08-0.27
	c0.001-0.039,0.001-0.039-0.072-0.041c-0.293-0.008-1.699,0.456-1.706,0.767c-0.007,0.272,5.849,0.985,6.215,0.996
	c0.587,0.017,1.248-0.003,1.835,0.014c1.319,0.077,2.712,0.156,4.179,0.199c-0.29-0.164-0.876-0.181-0.873-0.336
	c0.001-0.039,0.075-0.076,0.298-0.186c0.218,0.084,0.584,0.133,0.877,0.142c0.367,0.011,0.736-0.095,1.176-0.083
	c0.66,0.019,1.463,0.198,2.195,0.297c-0.001,0.039-0.001,0.039,0.072,0.041c-0.002,0.078-0.005,0.194-0.079,0.231
	c0.148-0.035,0.295-0.069,0.442-0.065c-0.146-0.043-0.292-0.086-0.363-0.166l0.001-0.039l-0.073-0.002
	c0.221-0.033,0.369-0.067,0.515-0.063c0.293,0.008,0.724,0.41,1.311,0.427c0.367,0.011,0.518-0.179,0.816-0.365
	c0.216,0.162,0.432,0.362,0.505,0.364c0.295-0.069,0.589-0.061,0.809-0.054c0.733,0.021,1.462,0.237,2.196,0.258
	c0.22,0.006,0.442-0.065,0.663-0.098l-0.579-0.328c0.442-0.065,0.663-0.097,0.81-0.093c0.22,0.006,0.14,0.276,0.355,0.516
	c0.446-0.22,0.599-0.488,1.332-0.467c0.073,0.002,0.218,0.084,0.364,0.127c-0.441,0.026-0.883,0.091-0.886,0.208
	c-0.007,0.311,1.606,0.358,2.707,0.389c0.293,0.009,0.515-0.063,0.814-0.287c-0.146-0.043-0.364-0.127-0.509-0.209
	c0.148-0.035,0.295-0.069,0.516-0.102l-0.008,0.35c1.467,0.042,0.812-0.21,1.473-0.191c-0.004,0.155-0.298,0.186-0.519,0.218
	c0.069,0.196,0.287,0.28,0.507,0.287c0.073,0.002,0.22,0.006,0.294-0.03c1.182-0.316,1.772-0.454,2.579-0.431
	c0.954,0.028,3.369,0.331,5.422,0.39c0.149-0.073,0.223-0.11,0.369-0.106c0.44,0.013,2.341,0.34,3.512,0.49l-0.001,0.039
	l0.074-0.037c0.294-0.03,0.664-0.136,0.957-0.128c3.446,0.177,6.593,0.541,10.041,0.64c-0.064-0.391-1.467-0.042-1.456-0.509
	c0.002-0.078,0.077-0.153,0.152-0.229c-0.662,0.059-1.473,0.191-1.913,0.178c-1.174-0.034-1.678-0.437-2.045-0.448
	c-0.514-0.015-1.104,0.124-1.617,0.109c-1.174-0.034-2.345-0.145-3.443-0.294l-0.001,0.039c-0.656-0.174-1.46-0.353-2.043-0.526
	c-0.078,0.192-0.227,0.266-0.373,0.261c-0.514-0.015-0.801-0.256-1.021-0.263c-0.073-0.002-0.148,0.035-0.149,0.112
	c-0.007,0.311,0.433,0.324,1.166,0.345c-0.074,0.037-0.076,0.114-0.15,0.151c-0.656-0.213-1.394-0.04-1.378-0.701
	c-0.666,0.214-1.182,0.316-1.622,0.303c-0.734-0.021-1.599-0.668-2.479-0.694c-0.293-0.008-0.37,0.106-0.447,0.259
	c0.073,0.002,0.146,0.043,0.218,0.084c-0.22-0.006-0.583-0.172-0.656-0.174c-0.147-0.004-0.148,0.073-0.152,0.229
	c-0.001,0.039-0.002,0.078,0.071,0.119c-0.66-0.019-0.799-0.334-1.013-0.612c-0.225,0.188-0.301,0.302-0.303,0.419l-0.003,0.116
	c-0.001,0.039-0.002,0.078-0.295,0.069c-0.513-0.015-0.499-0.636-1.389-0.234l-0.293-0.008c-0.658-0.097-1.969-0.523-2.63-0.543
	c-0.147-0.004-0.367-0.011-0.514,0.024c-0.003,0.117-0.006,0.233,0.064,0.391c-1.024-0.146-1.383-0.506-1.676-0.515
	c-0.807-0.023-1.55,0.383-2.431,0.357c-0.22-0.006-0.44-0.013-0.658-0.097l0.073,0.002c0.002-0.078,0.077-0.153,0.079-0.231
	c0.003-0.116-0.95-0.183-1.757-0.206c-0.953-0.027-1.178,0.16-1.77,0.338c-0.143-0.16-0.215-0.239-0.361-0.244
	c-0.293-0.008-0.591,0.138-0.957,0.128c-0.733-0.021-1.676-0.515-2.556-0.54c-0.293-0.008-0.525,0.49-1.259,0.469
	c0,0-0.879-0.064-0.876-0.22c0.001-0.039,0.076-0.114,0.077-0.153c0.002-0.078-0.07-0.119-0.069-0.196
	c-0.223,0.11-0.3,0.263-0.667,0.253c-0.293-0.008-0.291-0.125-0.361-0.244c-0.297,0.147-0.964,0.4-1.33,0.389
	c-0.367-0.011-0.795-0.528-2.115-0.566c-0.367-0.011-0.299,0.225-0.747,0.562c-0.142-0.199-0.211-0.395-0.354-0.555
	c-0.15,0.151-0.302,0.341-0.451,0.453c-0.218-0.084-0.654-0.291-0.874-0.297c-0.147-0.004-0.368,0.028-0.441,0.026
	c-0.22-0.006-0.29-0.164-0.359-0.321c-0.369,0.067-0.665,0.175-0.96,0.244c-0.147-0.004-0.292-0.047-0.439-0.052
	c0.002-0.078,0.004-0.155,0.079-0.231c-0.736,0.095-0.885,0.169-1.405,0.426l-0.073-0.002C106.426,1.942,106.427,1.903,106.5,1.906z
	"/>
</symbol>
<symbol id="icon-porn-computer" viewBox="0 0 54 48">
	<title>porn-computer</title>
	<path d="M29.557 20.802c-0.736-0.746-1.481-1.483-2.215-2.231-0.336-0.342-0.337-0.359-0.014-0.688 0.734-0.748 1.479-1.486 2.215-2.231 0.163-0.165 0.334-0.33 0.461-0.522 0.209-0.316 0.13-0.771-0.144-1.023-0.305-0.28-0.699-0.33-1.024-0.075-0.343 0.267-0.664 0.564-0.977 0.868-0.705 0.685-1.399 1.382-2.122 2.1-0.86-0.867-1.676-1.696-2.5-2.516-0.182-0.182-0.377-0.369-0.6-0.49-0.597-0.326-1.189 0.051-1.203 0.726-0.007 0.363 0.189 0.594 0.42 0.824 0.763 0.761 1.524 1.522 2.279 2.291 0.371 0.379 0.372 0.393 0.015 0.758-0.693 0.707-1.395 1.404-2.093 2.106-0.143 0.144-0.299 0.28-0.424 0.44-0.265 0.34-0.268 0.855-0.025 1.132 0.281 0.321 0.79 0.389 1.181 0.124 0.19-0.128 0.346-0.31 0.512-0.471 0.812-0.792 1.624-1.585 2.489-2.43 0.854 0.859 1.689 1.711 2.542 2.545 0.202 0.198 0.45 0.368 0.706 0.486 0.286 0.133 0.723-0.040 0.92-0.31 0.203-0.28 0.254-0.587 0.055-0.885-0.128-0.193-0.292-0.362-0.455-0.526z"></path>
	<path d="M41.951 20.693c-0.651-0.664-1.307-1.324-1.968-1.98-0.534-0.529-0.481-0.507 0.026-1.015 0.658-0.658 1.317-1.314 1.967-1.981 0.181-0.185 0.36-0.383 0.491-0.605 0.214-0.362 0.137-0.763-0.154-1.030-0.268-0.246-0.611-0.292-0.955-0.086-0.195 0.116-0.369 0.277-0.53 0.44-0.836 0.846-1.665 1.698-2.532 2.586-0.868-0.874-1.682-1.7-2.504-2.519-0.183-0.182-0.375-0.369-0.593-0.503-0.384-0.237-0.809-0.145-1.082 0.192-0.255 0.314-0.266 0.674-0.005 1.031 0.119 0.163 0.271 0.303 0.414 0.448 0.696 0.702 1.392 1.403 2.091 2.102 0.438 0.438 0.475 0.42 0.012 0.88-0.577 0.574-1.15 1.153-1.724 1.73-0.287 0.289-0.592 0.563-0.853 0.873-0.398 0.471-0.237 1.044 0.351 1.242 0.172 0.057 0.411 0.053 0.569-0.026 0.251-0.124 0.481-0.314 0.684-0.514 0.845-0.832 1.677-1.676 2.554-2.558 0.889 0.892 1.723 1.737 2.567 2.573 0.182 0.181 0.382 0.359 0.605 0.481 0.35 0.193 0.696 0.126 0.953-0.128 0.287-0.283 0.344-0.66 0.113-1.033-0.135-0.219-0.316-0.415-0.497-0.6z"></path>
	<path d="M17.501 15.31c0.406-0.428 0.398-0.788 0.047-1.146-0.34-0.346-0.762-0.38-1.164-0.069-0.182 0.142-0.335 0.322-0.499 0.487-0.798 0.801-1.595 1.602-2.443 2.454-0.714-0.717-1.387-1.393-2.061-2.069-0.288-0.289-0.558-0.598-0.87-0.858-0.418-0.349-0.876-0.291-1.221 0.105-0.305 0.35-0.288 0.661 0.074 1.082 0.133 0.154 0.283 0.293 0.428 0.436 0.809 0.795 1.618 1.589 2.508 2.465-0.333 0.303-0.572 0.511-0.8 0.731-0.733 0.705-1.469 1.41-2.193 2.126-0.282 0.279-0.453 0.601-0.235 1.012 0.238 0.448 0.719 0.633 1.168 0.387 0.248-0.136 0.466-0.34 0.669-0.542 0.821-0.811 1.629-1.631 2.465-2.47 0.854 0.859 1.652 1.664 2.453 2.465 0.164 0.164 0.323 0.341 0.512 0.472 0.424 0.293 0.916 0.222 1.247-0.152 0.323-0.365 0.302-0.692-0.128-1.144-0.582-0.611-1.187-1.2-1.782-1.798-0.343-0.345-0.684-0.692-1.147-1.158 0.339-0.271 0.631-0.467 0.879-0.71 0.708-0.692 1.411-1.39 2.091-2.107z"></path>
	<path d="M46.447 3.907h-41.013c-0.625 0-1.132 0.51-1.132 1.136v25.717c0 0.626 0.508 1.136 1.132 1.136h41.014c0.625 0 1.132-0.51 1.132-1.136v-25.717c0-0.626-0.508-1.136-1.133-1.136zM47.353 30.76c0 0.501-0.406 0.909-0.905 0.909h-41.014c-0.499 0-0.905-0.408-0.905-0.909v-25.717c0-0.501 0.406-0.909 0.905-0.909h41.014c0.499 0 0.905 0.408 0.905 0.909v25.717z"></path>
	<path d="M51.489 33.925v-31.656c0-1.251-1.012-2.269-2.257-2.269h-46.976c-1.245 0-2.257 1.018-2.257 2.269v31.656c0 1.251 1.012 2.269 2.257 2.269h46.976c1.245-0.001 2.257-1.018 2.257-2.269zM0.227 33.925v-31.656c0-1.126 0.91-2.042 2.030-2.042h46.976c1.119 0 2.030 0.916 2.030 2.042v31.656c0 1.126-0.91 2.042-2.030 2.042h-46.976c-1.119-0.001-2.030-0.917-2.030-2.042z"></path>
	<path d="M53.724 45.859c-0.507-1.045-3.514-2.714-5.478-2.737-1.117-0.013-2.297 0.572-3.117 1.081-1.51 0.071-4.453-0.015-4.597-1.097-0.069-0.513 0.089-1.121 0.241-1.709 0.302-1.168 0.616-2.376-0.693-3.067-0.054-0.027-0.124-0.008-0.153 0.047s-0.008 0.124 0.047 0.153c1.15 0.608 0.872 1.678 0.579 2.81-0.158 0.609-0.321 1.24-0.247 1.796 0.152 1.13 2.502 1.311 3.995 1.311 0.162 0 0.315-0.002 0.453-0.005-0.406 0.275-0.668 0.489-0.668 0.489s-0.016 0.12-0.011 0.16c0.005 0.041 0.034 0.075 0.073 0.091 0 0 7.302 2.784 7.306 2.77 1.019 0.327 2.762-1.078 2.27-2.093zM44.438 45.050c0.078-0.046 0.186-0.103 0.307-0.161 0.848-0.041 2.308-0.065 3.11 0.187 0.994 0.312 2.101 1.728 3.028 2.427l-6.445-2.454z"></path>
	<path d="M36.158 41.376c-0.935-0.926-2.099-2.078-2.099-3.089v-1.482c0-0.063-0.051-0.113-0.113-0.113s-0.113 0.051-0.113 0.113v1.482c0 1.107 1.201 2.295 2.166 3.251 0.653 0.646 1.328 1.314 1.21 1.602-0.049 0.118-0.276 0.259-1.081 0.259h-20.624c-0.625 0-0.765-0.115-0.792-0.185-0.094-0.236 0.549-0.846 1.172-1.436 1.028-0.974 2.307-2.186 2.307-3.35v-1.55c0-0.063-0.051-0.113-0.113-0.113s-0.113 0.051-0.113 0.113v1.55c0 1.066-1.24 2.24-2.236 3.184-0.8 0.758-1.378 1.305-1.226 1.685 0.091 0.227 0.399 0.328 1.003 0.328h20.624c0.78 0 1.177-0.123 1.291-0.398 0.176-0.428-0.427-1.025-1.26-1.85z"></path>
</symbol>
<symbol id="icon-woman-outline" viewBox="0 0 49 48">
<title>woman-outline</title>
	<path d="M36.245 26.449h-0.246c2.72-3.476 4.165-7.195 4.165-10.776 0-8.935-6.739-15.673-15.674-15.673s-15.673 6.738-15.673 15.673c0 3.581 1.445 7.3 4.165 10.776h-0.247c-7.022 0-12.735 5.713-12.735 12.735v5.878c0 1.62 1.318 2.938 2.939 2.938h43.102c1.621 0 2.939-1.318 2.939-2.939v-5.878c0-7.021-5.713-12.734-12.735-12.734zM10.776 15.673c0-7.837 5.878-13.714 13.714-13.714s13.714 5.878 13.714 13.714c0 3.708-1.764 7.112-3.918 9.796h-3.304c3.17-2.105 5.263-5.705 5.263-9.796 0-6.492-5.263-11.755-11.755-11.755s-11.755 5.264-11.755 11.755c0 4.091 2.093 7.691 5.263 9.796h-3.304c-2.154-2.684-3.918-6.088-3.918-9.796zM30.368 15.673c0.664 0 1.791-0.149 2.418-0.276 0.002 0.065 0.019 0.128 0.019 0.195 0 4.328-3.987 9.876-8.315 9.876s-8.49-5.467-8.49-9.795c0-3.078 1.989-6.555 4.571-7.837 1.21 4.036 5.365 7.837 9.797 7.837zM22.126 6.199c0.761-0.19 1.545-0.321 2.364-0.321 4.531 0 8.318 3.108 9.432 7.294l-1.522 0.305c-0.557 0.112-1.544 0.237-2.032 0.237-3.583 0-6.987-3.33-7.919-6.44l-0.323-1.075zM43.102 46.041h-37.224v-6.857c0-4.037 3.197-6.857 7.776-6.857 6.786 0 9.876 9.034 9.907 9.125l0.873 2.618 0.974-2.583c0.034-0.092 3.52-9.161 9.583-9.161 4.776 0 8.112 2.82 8.112 6.857v6.858zM47.020 45.061c0 0.54-0.439 0.98-0.98 0.98h-0.98v-6.857c0-5.191-4.141-8.816-10.071-8.816-5.393 0-8.894 5.285-10.465 8.337-1.494-3.066-4.928-8.337-10.872-8.337-5.731 0-9.735 3.626-9.735 8.816v6.857h-0.98c-0.54 0-0.98-0.439-0.98-0.98v-5.878c0-5.942 4.834-10.776 10.776-10.776h23.51c5.942 0 10.776 4.834 10.776 10.776v5.878z"></path>
</symbol>
<symbol id="icon-director-chair" viewBox="0 0 35 48">
<title>director-chair</title>
<path d="M34.4 16h-0.8v-15.2c0-0.442-0.358-0.8-0.8-0.8h-4.8c-0.442 0-0.8 0.358-0.8 0.8v0.945c-6.297 1.359-12.903 1.359-19.2 0v-0.945c0-0.442-0.358-0.8-0.8-0.8h-4.8c-0.442 0-0.8 0.358-0.8 0.8v15.2h-0.8c-0.442 0-0.8 0.358-0.8 0.8v3.2c0 0.442 0.358 0.8 0.8 0.8h0.8v8c0 0.001 0 0.002 0 0.002 0 0.097 0.022 0.191 0.057 0.281 0.011 0.029 0.027 0.054 0.042 0.082 0.029 0.056 0.063 0.108 0.106 0.157 0.023 0.027 0.047 0.050 0.074 0.074 0.019 0.017 0.033 0.038 0.054 0.054l11.692 8.404c0.006 0.092 0.016 0.183 0.028 0.273l-11.72 8.423c-0.282 0.203-0.401 0.564-0.295 0.895s0.415 0.555 0.762 0.555h4.8c0.168 0 0.331-0.053 0.467-0.15l8.905-6.4c0.33 0.088 0.67 0.151 1.028 0.151s0.698-0.062 1.028-0.151l8.905 6.4c0.136 0.097 0.299 0.15 0.467 0.15h4.8c0.347 0 0.655-0.224 0.761-0.555s-0.013-0.692-0.295-0.895l-11.72-8.424c0.012-0.090 0.022-0.181 0.028-0.273l11.692-8.404c0.021-0.015 0.035-0.037 0.054-0.054 0.027-0.023 0.051-0.047 0.074-0.074 0.042-0.048 0.077-0.101 0.106-0.157 0.014-0.028 0.031-0.052 0.042-0.082 0.034-0.090 0.056-0.184 0.057-0.281 0-0.001 0-0.002 0-0.002v-8h0.8c0.442 0 0.8-0.358 0.8-0.8v-3.2c0.001-0.441-0.357-0.799-0.799-0.799zM28.8 1.6h3.2v14.4h-3.2v-14.4zM26.4 16c-0.442 0-0.8 0.358-0.8 0.8v3.2c0 0.442 0.358 0.8 0.8 0.8h0.8v1.187c-6.165-2.495-13.035-2.495-19.2 0v-1.187h0.8c0.442 0 0.8-0.358 0.8-0.8v-3.2c0-0.442-0.358-0.8-0.8-0.8h-0.8v-1.008c3.152 0.656 6.374 1.001 9.6 1.001s6.448-0.345 9.6-1.001v1.008h-0.8zM19.359 34.026c-0.533-0.264-1.125-0.426-1.759-0.426s-1.226 0.162-1.759 0.426l-6.157-4.426h15.833l-6.158 4.426zM27.2 28h-19.2v-4.282c6.13-2.674 13.070-2.674 19.2 0v4.282zM8.946 3.566c-0.085 0.127-0.146 0.27-0.146 0.434 0 0.442 0.358 0.8 0.8 0.8s0.8-0.358 0.8-0.8c0-0.063-0.022-0.119-0.036-0.177 0.545 0.084 1.094 0.146 1.643 0.211 0.019 0.425 0.363 0.766 0.793 0.766 0.374 0 0.673-0.262 0.761-0.608 0.568 0.049 1.137 0.098 1.706 0.126 0.124 0.283 0.405 0.482 0.733 0.482 0.312 0 0.576-0.184 0.708-0.445 0.595 0.011 1.19 0.011 1.785 0 0.131 0.261 0.395 0.445 0.707 0.445 0.328 0 0.609-0.199 0.732-0.482 0.57-0.028 1.138-0.078 1.706-0.126 0.089 0.346 0.388 0.608 0.762 0.608 0.43 0 0.774-0.341 0.793-0.766 0.548-0.065 1.097-0.127 1.643-0.211-0.014 0.058-0.036 0.114-0.036 0.177 0 0.442 0.358 0.8 0.8 0.8s0.8-0.358 0.8-0.8c0-0.164-0.061-0.307-0.146-0.434 0.315-0.059 0.632-0.106 0.946-0.171v1.405c-0.442 0-0.8 0.358-0.8 0.8s0.358 0.8 0.8 0.8v1.6c-0.442 0-0.8 0.358-0.8 0.8s0.358 0.8 0.8 0.8v1.6c-0.442 0-0.8 0.358-0.8 0.8s0.358 0.8 0.8 0.8v0.575c-0.27 0.058-0.544 0.1-0.815 0.153-0.038-0.407-0.369-0.728-0.785-0.728-0.442 0-0.8 0.358-0.8 0.8 0 0.077 0.023 0.146 0.044 0.217-0.599 0.096-1.202 0.169-1.805 0.241 0.094-0.131 0.161-0.284 0.161-0.458 0-0.442-0.358-0.8-0.8-0.8s-0.8 0.358-0.8 0.8c0 0.232 0.102 0.437 0.261 0.583-0.792 0.074-1.586 0.127-2.381 0.16 0.303-0.114 0.52-0.4 0.52-0.743 0-0.442-0.358-0.8-0.8-0.8s-0.8 0.358-0.8 0.8c0 0.365 0.25 0.661 0.585 0.756-0.923 0.028-1.846 0.028-2.769 0 0.334-0.095 0.584-0.391 0.584-0.756 0-0.442-0.358-0.8-0.8-0.8s-0.8 0.358-0.8 0.8c0 0.343 0.217 0.629 0.52 0.743-0.795-0.033-1.589-0.086-2.381-0.16 0.158-0.146 0.261-0.351 0.261-0.583 0-0.442-0.358-0.8-0.8-0.8s-0.8 0.358-0.8 0.8c0 0.174 0.067 0.326 0.161 0.458-0.603-0.072-1.206-0.145-1.805-0.241 0.020-0.070 0.044-0.14 0.044-0.217 0-0.442-0.358-0.8-0.8-0.8-0.416 0-0.747 0.321-0.785 0.727-0.271-0.053-0.545-0.094-0.815-0.152v-0.575c0.442 0 0.8-0.358 0.8-0.8s-0.358-0.8-0.8-0.8v-1.6c0.442 0 0.8-0.358 0.8-0.8s-0.358-0.8-0.8-0.8v-1.6c0.442 0 0.8-0.358 0.8-0.8s-0.358-0.8-0.8-0.8v-1.405c0.314 0.065 0.631 0.112 0.946 0.171zM3.2 1.6h3.2v14.4h-3.2v-14.4zM1.6 17.6h6.4v1.6h-6.4v-1.6zM6.4 20.8v7.2h-3.2v-7.2h3.2zM6.942 29.6l7.581 5.449c-0.048 0.058-0.085 0.124-0.13 0.185-0.056 0.076-0.111 0.15-0.162 0.23-0.072 0.114-0.132 0.233-0.192 0.353-0.045 0.089-0.098 0.173-0.136 0.266l-9.019-6.483h2.058zM14.989 40.616l-8.047 5.784h-2.058l9.326-6.703c0.089 0.143 0.19 0.275 0.296 0.405 0.037 0.046 0.073 0.092 0.112 0.136 0.1 0.113 0.204 0.22 0.316 0.321 0.019 0.018 0.035 0.040 0.055 0.057zM16.722 39.828c-0.001 0-0.002-0.001-0.003-0.002-0.68-0.27-1.209-0.857-1.413-1.57-0.001-0.005-0.006-0.008-0.008-0.013-0.057-0.206-0.098-0.419-0.098-0.643 0-0.031 0.008-0.059 0.009-0.089 0.001-0.011 0.006-0.022 0.006-0.033 0.010-0.185 0.040-0.366 0.089-0.539 0.002-0.007 0.004-0.014 0.007-0.021 0.045-0.155 0.108-0.302 0.182-0.443 0.015-0.027 0.029-0.055 0.044-0.082 0.069-0.12 0.152-0.232 0.241-0.338 0.025-0.029 0.047-0.061 0.074-0.089 0.114-0.123 0.24-0.236 0.381-0.334 0.388-0.27 0.858-0.431 1.366-0.431s0.978 0.161 1.366 0.431c0.141 0.098 0.267 0.212 0.381 0.335 0.026 0.028 0.048 0.059 0.073 0.088 0.090 0.107 0.173 0.219 0.242 0.34 0.016 0.027 0.030 0.054 0.044 0.081 0.074 0.141 0.137 0.288 0.182 0.442 0.002 0.008 0.005 0.015 0.007 0.023 0.048 0.173 0.079 0.353 0.089 0.538 0.001 0.011 0.005 0.022 0.006 0.033 0.003 0.029 0.011 0.057 0.011 0.088 0 0.225-0.041 0.438-0.099 0.644-0.001 0.005-0.006 0.008-0.007 0.012-0.204 0.714-0.733 1.301-1.413 1.57-0.001 0-0.002 0.001-0.003 0.002-0.272 0.108-0.567 0.172-0.878 0.172-0.31 0-0.605-0.064-0.878-0.172zM30.316 46.4h-2.059l-8.047-5.784c0.020-0.018 0.036-0.039 0.056-0.057 0.112-0.101 0.216-0.208 0.316-0.321 0.039-0.044 0.075-0.090 0.112-0.136 0.106-0.13 0.207-0.262 0.295-0.405l9.327 6.703zM21.297 36.083c-0.038-0.091-0.089-0.174-0.133-0.261-0.060-0.122-0.122-0.243-0.195-0.358-0.051-0.079-0.106-0.154-0.162-0.229-0.045-0.061-0.082-0.126-0.13-0.185l7.581-5.449h2.059l-9.020 6.482zM32 28h-3.2v-7.2h3.2v7.2zM33.6 19.2h-6.4v-1.6h6.4v1.6z"></path>
<path d="M5.6 4.8c0 0.442-0.358 0.8-0.8 0.8s-0.8-0.358-0.8-0.8c0-0.442 0.358-0.8 0.8-0.8s0.8 0.358 0.8 0.8z"></path>
<path d="M24.8 5.6c0 0.442-0.358 0.8-0.8 0.8s-0.8-0.358-0.8-0.8c0-0.442 0.358-0.8 0.8-0.8s0.8 0.358 0.8 0.8z"></path>
<path d="M21.6 5.6c0 0.442-0.358 0.8-0.8 0.8s-0.8-0.358-0.8-0.8c0-0.442 0.358-0.8 0.8-0.8s0.8 0.358 0.8 0.8z"></path>
<path d="M18.4 5.6c0 0.442-0.358 0.8-0.8 0.8s-0.8-0.358-0.8-0.8c0-0.442 0.358-0.8 0.8-0.8s0.8 0.358 0.8 0.8z"></path>
<path d="M15.2 5.6c0 0.442-0.358 0.8-0.8 0.8s-0.8-0.358-0.8-0.8c0-0.442 0.358-0.8 0.8-0.8s0.8 0.358 0.8 0.8z"></path>
<path d="M12 5.6c0 0.442-0.358 0.8-0.8 0.8s-0.8-0.358-0.8-0.8c0-0.442 0.358-0.8 0.8-0.8s0.8 0.358 0.8 0.8z"></path>
<path d="M10.4 7.2c0 0.442-0.358 0.8-0.8 0.8s-0.8-0.358-0.8-0.8c0-0.442 0.358-0.8 0.8-0.8s0.8 0.358 0.8 0.8z"></path>
<path d="M13.6 7.2c0 0.442-0.358 0.8-0.8 0.8s-0.8-0.358-0.8-0.8c0-0.442 0.358-0.8 0.8-0.8s0.8 0.358 0.8 0.8z"></path>
<path d="M16.8 7.2c0 0.442-0.358 0.8-0.8 0.8s-0.8-0.358-0.8-0.8c0-0.442 0.358-0.8 0.8-0.8s0.8 0.358 0.8 0.8z"></path>
<path d="M20 7.2c0 0.442-0.358 0.8-0.8 0.8s-0.8-0.358-0.8-0.8c0-0.442 0.358-0.8 0.8-0.8s0.8 0.358 0.8 0.8z"></path>
<path d="M23.2 7.2c0 0.442-0.358 0.8-0.8 0.8s-0.8-0.358-0.8-0.8c0-0.442 0.358-0.8 0.8-0.8s0.8 0.358 0.8 0.8z"></path>
<path d="M26.4 7.2c0 0.442-0.358 0.8-0.8 0.8s-0.8-0.358-0.8-0.8c0-0.442 0.358-0.8 0.8-0.8s0.8 0.358 0.8 0.8z"></path>
<path d="M24.8 8.8c0 0.442-0.358 0.8-0.8 0.8s-0.8-0.358-0.8-0.8c0-0.442 0.358-0.8 0.8-0.8s0.8 0.358 0.8 0.8z"></path>
<path d="M21.6 8.8c0 0.442-0.358 0.8-0.8 0.8s-0.8-0.358-0.8-0.8c0-0.442 0.358-0.8 0.8-0.8s0.8 0.358 0.8 0.8z"></path>
<path d="M18.4 8.8c0 0.442-0.358 0.8-0.8 0.8s-0.8-0.358-0.8-0.8c0-0.442 0.358-0.8 0.8-0.8s0.8 0.358 0.8 0.8z"></path>
<path d="M15.2 8.8c0 0.442-0.358 0.8-0.8 0.8s-0.8-0.358-0.8-0.8c0-0.442 0.358-0.8 0.8-0.8s0.8 0.358 0.8 0.8z"></path>
<path d="M12 8.8c0 0.442-0.358 0.8-0.8 0.8s-0.8-0.358-0.8-0.8c0-0.442 0.358-0.8 0.8-0.8s0.8 0.358 0.8 0.8z"></path>
<path d="M10.4 10.4c0 0.442-0.358 0.8-0.8 0.8s-0.8-0.358-0.8-0.8c0-0.442 0.358-0.8 0.8-0.8s0.8 0.358 0.8 0.8z"></path>
<path d="M13.6 10.4c0 0.442-0.358 0.8-0.8 0.8s-0.8-0.358-0.8-0.8c0-0.442 0.358-0.8 0.8-0.8s0.8 0.358 0.8 0.8z"></path>
<path d="M16.8 10.4c0 0.442-0.358 0.8-0.8 0.8s-0.8-0.358-0.8-0.8c0-0.442 0.358-0.8 0.8-0.8s0.8 0.358 0.8 0.8z"></path>
<path d="M20 10.4c0 0.442-0.358 0.8-0.8 0.8s-0.8-0.358-0.8-0.8c0-0.442 0.358-0.8 0.8-0.8s0.8 0.358 0.8 0.8z"></path>
<path d="M23.2 10.4c0 0.442-0.358 0.8-0.8 0.8s-0.8-0.358-0.8-0.8c0-0.442 0.358-0.8 0.8-0.8s0.8 0.358 0.8 0.8z"></path>
<path d="M26.4 10.4c0 0.442-0.358 0.8-0.8 0.8s-0.8-0.358-0.8-0.8c0-0.442 0.358-0.8 0.8-0.8s0.8 0.358 0.8 0.8z"></path>
<path d="M24.8 12c0 0.442-0.358 0.8-0.8 0.8s-0.8-0.358-0.8-0.8c0-0.442 0.358-0.8 0.8-0.8s0.8 0.358 0.8 0.8z"></path>
<path d="M21.6 12c0 0.442-0.358 0.8-0.8 0.8s-0.8-0.358-0.8-0.8c0-0.442 0.358-0.8 0.8-0.8s0.8 0.358 0.8 0.8z"></path>
<path d="M18.4 12c0 0.442-0.358 0.8-0.8 0.8s-0.8-0.358-0.8-0.8c0-0.442 0.358-0.8 0.8-0.8s0.8 0.358 0.8 0.8z"></path>
<path d="M15.2 12c0 0.442-0.358 0.8-0.8 0.8s-0.8-0.358-0.8-0.8c0-0.442 0.358-0.8 0.8-0.8s0.8 0.358 0.8 0.8z"></path>
<path d="M12 12c0 0.442-0.358 0.8-0.8 0.8s-0.8-0.358-0.8-0.8c0-0.442 0.358-0.8 0.8-0.8s0.8 0.358 0.8 0.8z"></path>
<path d="M5.6 8.8c0 0.442-0.358 0.8-0.8 0.8s-0.8-0.358-0.8-0.8c0-0.442 0.358-0.8 0.8-0.8s0.8 0.358 0.8 0.8z"></path>
<path d="M5.6 12.8c0 0.442-0.358 0.8-0.8 0.8s-0.8-0.358-0.8-0.8c0-0.442 0.358-0.8 0.8-0.8s0.8 0.358 0.8 0.8z"></path>
<path d="M31.2 4.8c0 0.442-0.358 0.8-0.8 0.8s-0.8-0.358-0.8-0.8c0-0.442 0.358-0.8 0.8-0.8s0.8 0.358 0.8 0.8z"></path>
<path d="M31.2 8.8c0 0.442-0.358 0.8-0.8 0.8s-0.8-0.358-0.8-0.8c0-0.442 0.358-0.8 0.8-0.8s0.8 0.358 0.8 0.8z"></path>
<path d="M31.2 12.8c0 0.442-0.358 0.8-0.8 0.8s-0.8-0.358-0.8-0.8c0-0.442 0.358-0.8 0.8-0.8s0.8 0.358 0.8 0.8z"></path>
</symbol>
<symbol id="icon-book-outline" viewBox="0 0 44 48">
<title>book-outline</title>
<path d="M43.308 3.333c-0.283-0.175-0.636-0.191-0.934-0.042l-20.492 10.246-20.492-10.246c-0.298-0.148-0.65-0.132-0.934 0.042-0.282 0.175-0.455 0.484-0.455 0.817v32.43c0 0.364 0.205 0.696 0.531 0.859l20.921 10.46c0.009 0.004 0.018 0.002 0.027 0.007 0.123 0.058 0.257 0.095 0.403 0.095s0.279-0.037 0.403-0.095c0.009-0.004 0.018-0.002 0.027-0.007l20.921-10.46c0.325-0.162 0.531-0.495 0.531-0.859v-32.43c-0.002-0.333-0.174-0.642-0.457-0.817zM1.92 5.703l19.001 9.5v30.283l-19.001-9.5v-30.283zM41.843 35.987l-19.001 9.5v-30.283l19.001-9.5v30.283z"></path>
<path d="M4.707 1.817l16.738 8.471c0.136 0.069 0.284 0.104 0.433 0.104s0.298-0.035 0.433-0.104l16.738-8.471c0.473-0.239 0.662-0.817 0.423-1.29s-0.818-0.662-1.29-0.422l-16.304 8.251-16.304-8.252c-0.473-0.24-1.051-0.050-1.29 0.422s-0.050 1.052 0.423 1.291z"></path>
</symbol>

<symbol id="icon-dollar-sign" viewBox="0 0 48 48">
<title>dollar-sign</title>
<path d="M26.4 40.212v5.388h-4.8v-5.143c-4.109-0.24-7.358-1.414-10.178-4.313l4.123-4.176c2.062 2.088 4.855 2.784 7.877 2.784 3.756 0 5.772-1.438 5.772-4.085 0-1.159-0.319-2.134-1.008-2.784-0.641-0.602-1.373-0.929-2.885-1.159l-3.941-0.557c-2.794-0.418-4.853-1.298-6.322-2.738-1.555-1.577-2.335-3.71-2.335-6.497 0-5.172 3.317-8.983 8.897-9.84v-4.692h4.8v4.637c3.317 0.348 5.916 1.488 8.196 3.722l-4.030 4.037c-2.062-1.997-4.534-2.273-6.689-2.273-3.389 0-5.038 1.901-5.038 4.176 0 0.835 0.276 1.718 0.962 2.366 0.641 0.605 1.694 1.114 3.024 1.298l3.845 0.557c2.978 0.418 4.855 1.253 6.23 2.551 1.742 1.67 2.52 4.085 2.52 7.008 0 5.4-3.761 8.789-9.022 9.732z"></path>
</symbol>

<symbol id="icon-flag" viewBox="0 0 48 48">
<title>flag</title>
<path d="M45.422 13.402c-22.414 32.563-14.741-0.624-33.689 15.257l4.308 16.942h-4.846l-8.796-34.584 4.44-1.594c21.238-15.53 10.147 13.968 37.529 3.010 0.874-0.353 1.572 0.216 1.054 0.97z"></path>
</symbol>

<symbol id="icon-cart" viewBox="0 0 48 48">
<title>cart</title>
<path d="M18 43.5c0 2.485-2.015 4.5-4.5 4.5s-4.5-2.015-4.5-4.5c0-2.485 2.015-4.5 4.5-4.5s4.5 2.015 4.5 4.5z"></path>
<path d="M48 43.5c0 2.485-2.015 4.5-4.5 4.5s-4.5-2.015-4.5-4.5c0-2.485 2.015-4.5 4.5-4.5s4.5 2.015 4.5 4.5z"></path>
<path d="M48 24v-18h-36c0-1.657-1.343-3-3-3h-9v3h6l2.253 19.315c-1.373 1.1-2.253 2.789-2.253 4.685 0 3.314 2.686 6 6 6h36v-3h-36c-1.657 0-3-1.343-3-3 0-0.010 0.001-0.020 0.001-0.031l38.999-5.969z"></path>
</symbol>
<symbol id="icon-profile" viewBox="0 0 48 48">
<title>profile</title>
<path d="M42 37.5h-4.5v-1.5c0.83 0 1.5-0.672 1.5-1.5 0-0.83-0.67-1.5-1.5-1.5h-3c-0.83 0-1.5 0.67-1.5 1.5 0 0.828 0.67 1.5 1.5 1.5v1.5h-19.5v-1.5c0.83 0 1.5-0.672 1.5-1.5 0-0.83-0.67-1.5-1.5-1.5h-3c-0.829 0-1.5 0.67-1.5 1.5 0 0.828 0.671 1.5 1.5 1.5v1.5h-6c-1.656 0-3-1.344-3-3v-21c0-1.656 1.344-3 3-3h36c1.656 0 3 1.344 3 3v21c0 1.656-1.344 3-3 3zM15 14.718c-1.812 0-3.282 1.93-3.282 4.313s1.47 4.313 3.282 4.313 3.282-1.931 3.282-4.313-1.47-4.313-3.282-4.313zM20.235 25.032c-0.808-0.538-3.136-0.897-3.136-0.897s-1.509 1.613-2.149 1.613c-0.642 0-2.151-1.613-2.151-1.613s-2.328 0.357-3.135 0.897c-0.809 0.537-1.166 3.392-1.166 3.392h12.922c0.002-0.002-0.236-2.76-1.185-3.392zM39 16.5h-13.5v1.5h13.5v-1.5zM39 19.5h-13.5v1.5h13.5v-1.5zM39 22.5h-13.5v1.5h13.5v-1.5zM39 25.5h-13.5v1.5h13.5v-1.5z"></path>
</symbol>

<symbol id="icon-archive" viewBox="0 0 48 48">
<title>archive</title>
<path d="M10.219 10.031h27.563l-1.875-2.063h-24zM24 34.969l10.969-10.969h-6.938v-4.031h-8.063v4.031h-6.938zM41.063 10.5c0.563 0.656 0.938 1.594 0.938 2.531v24.938c0 2.156-1.875 4.031-4.031 4.031h-27.938c-2.156 0-4.031-1.875-4.031-4.031v-24.938c0-0.938 0.375-1.875 0.938-2.531l2.719-3.375c0.563-0.656 1.406-1.125 2.344-1.125h24c0.938 0 1.781 0.469 2.344 1.125z"></path>
</symbol>

<symbol id="icon-facebook-official" viewBox="0 0 41 48">
<title>facebook-official</title>
<path d="M38.866 3.429c1.259 0 2.277 1.018 2.277 2.277v36.589c0 1.259-1.018 2.277-2.277 2.277h-10.473v-15.938h5.33l0.804-6.214h-6.134v-3.964c0-1.795 0.482-3 3.080-3l3.268-0.027v-5.545c-0.563-0.080-2.518-0.241-4.768-0.241-4.741 0-8.009 2.893-8.009 8.196v4.58h-5.357v6.214h5.357v15.938h-19.688c-1.259 0-2.277-1.018-2.277-2.277v-36.589c0-1.259 1.018-2.277 2.277-2.277h36.589z"></path>
</symbol>

<symbol id="icon-twitter-square" viewBox="0 0 41 48">
<title>twitter-square</title>
<path d="M34.286 16.339c-1.018 0.455-2.089 0.75-3.241 0.911 1.179-0.696 2.063-1.821 2.491-3.134-1.098 0.643-2.304 1.125-3.589 1.366-1.018-1.098-2.491-1.768-4.098-1.768-3.107 0-5.625 2.518-5.625 5.625 0 0.429 0.027 0.884 0.134 1.286-4.688-0.241-8.839-2.464-11.625-5.893-0.482 0.83-0.777 1.821-0.777 2.839 0 1.955 0.911 3.67 2.438 4.688-0.938-0.027-1.821-0.295-2.679-0.696v0.054c0 2.732 2.063 5.009 4.634 5.518-0.482 0.134-0.857 0.214-1.366 0.214-0.348 0-0.696-0.054-1.045-0.107 0.723 2.223 2.786 3.857 5.25 3.911-1.929 1.5-4.339 2.411-6.991 2.411-0.455 0-0.911-0.027-1.339-0.080 2.491 1.58 5.437 2.518 8.625 2.518 10.339 0 16.018-8.571 16.018-16.018 0-0.241 0-0.482-0.027-0.723 1.098-0.777 2.063-1.768 2.813-2.92zM41.143 11.143v25.714c0 4.259-3.455 7.714-7.714 7.714h-25.714c-4.259 0-7.714-3.455-7.714-7.714v-25.714c0-4.259 3.455-7.714 7.714-7.714h25.714c4.259 0 7.714 3.455 7.714 7.714z"></path>
</symbol>

</defs>
</svg>
