<svg id="Layer_1" data-name="Layer 1" xmlns="http://www.w3.org/2000/svg" viewBox="0 0 10 10"><title>facebook-logo</title><path d="M7.83,3.55a3.25,3.25,0,0,0,.74-.76A3,3,0,0,1,7.72,3a1.5,1.5,0,0,0,.65-.8,2.78,2.78,0,0,1-.94.36,1.36,1.36,0,0,0-1-.47,1.44,1.44,0,0,0-.81.25A1.48,1.48,0,0,0,5,3a1.43,1.43,0,0,0-.07.9,4,4,0,0,1-1.7-.46A4.4,4.4,0,0,1,1.92,2.37a1.38,1.38,0,0,0-.2.73,1.45,1.45,0,0,0,.67,1.24,1.52,1.52,0,0,1-.67-.2v0a1.42,1.42,0,0,0,.33.94,1.49,1.49,0,0,0,.85.51,2,2,0,0,1-.67,0,1.37,1.37,0,0,0,.51.73,1.4,1.4,0,0,0,.85.28,2.87,2.87,0,0,1-1.81.63H1.43a4.14,4.14,0,0,0,2.25.65A4.11,4.11,0,0,0,6,7.25,4,4,0,0,0,7.37,5.67a4.29,4.29,0,0,0,.47-1.94Z" fill="#fff"/></svg>